<?xml version="1.0" encoding="UTF-8"?>
<!DOCTYPE svg PUBLIC "-//W3C//DTD SVG 1.1//EN" "http://www.w3.org/Graphics/SVG/1.1/DTD/svg11.dtd">
<svg xmlns="http://www.w3.org/2000/svg" version="1.1" width="100px" height="100px" style="shape-rendering:geometricPrecision; text-rendering:geometricPrecision; image-rendering:optimizeQuality; fill-rule:evenodd; clip-rule:evenodd" xmlns:xlink="http://www.w3.org/1999/xlink">
<g><path style="opacity:0.971" fill="#740306" d="M 38.5,-0.5 C 45.8333,-0.5 53.1667,-0.5 60.5,-0.5C 80.9318,5.59837 93.9318,18.9317 99.5,39.5C 99.5,46.1667 99.5,52.8333 99.5,59.5C 93.8333,80.5 80.5,93.8333 59.5,99.5C 52.8333,99.5 46.1667,99.5 39.5,99.5C 18.9317,93.9318 5.59837,80.9318 -0.5,60.5C -0.5,53.1667 -0.5,45.8333 -0.5,38.5C 5.5,18.5 18.5,5.5 38.5,-0.5 Z"/></g>
<g><path style="opacity:1" fill="#c0a88a" d="M 27.5,21.5 C 27.8417,20.6618 28.5084,20.3284 29.5,20.5C 31.0372,25.779 32.3705,31.1123 33.5,36.5C 33.1667,37.5 32.5,38.1667 31.5,38.5C 31.6621,36.4727 31.4955,34.4727 31,32.5C 30.6174,31.944 30.1174,31.6107 29.5,31.5C 29.5,30.8333 29.5,30.1667 29.5,29.5C 29.9382,29.5654 30.2716,29.3988 30.5,29C 29.718,26.3281 28.718,23.8281 27.5,21.5 Z"/></g>
<g><path style="opacity:1" fill="#efe1ca" d="M 70.5,33.5 C 69.596,34.209 69.2627,35.209 69.5,36.5C 66.8602,36.954 64.5268,38.1207 62.5,40C 56.5092,40.4995 50.5092,40.6662 44.5,40.5C 44.5,38.8333 44.5,37.1667 44.5,35.5C 40.8019,35.5524 37.1352,35.8857 33.5,36.5C 32.3705,31.1123 31.0372,25.779 29.5,20.5C 29.4701,19.5028 29.9701,18.8361 31,18.5C 39.5511,14.4615 48.3844,13.6281 57.5,16C 62.6186,18.0391 67.7852,19.8724 73,21.5C 72.0984,25.4017 71.265,29.4017 70.5,33.5 Z"/></g>
<g><path style="opacity:1" fill="#a16d3a" d="M 71.5,37.5 C 70.5655,36.4324 70.2322,35.099 70.5,33.5C 71.265,29.4017 72.0984,25.4017 73,21.5C 67.7852,19.8724 62.6186,18.0391 57.5,16C 48.3844,13.6281 39.5511,14.4615 31,18.5C 29.9701,18.8361 29.4701,19.5028 29.5,20.5C 28.5084,20.3284 27.8417,20.6618 27.5,21.5C 25.2369,22.1264 23.5703,23.4597 22.5,25.5C 24.7867,30.4036 26.7867,35.4036 28.5,40.5C 27.5084,40.6716 26.8417,40.3382 26.5,39.5C 23.77,34.3953 21.9366,29.062 21,23.5C 28.9733,17.3897 37.9733,13.3897 48,11.5C 52.2596,13.1677 56.7596,14.0011 61.5,14C 61.9981,15.1581 62.8315,15.9915 64,16.5C 67.7599,17.6415 71.4265,18.9749 75,20.5C 74.1688,26.1806 73.0021,31.8472 71.5,37.5 Z"/></g>
<g><path style="opacity:1" fill="#bd3327" d="M 33.5,25.5 C 35.4646,25.9483 35.7979,26.9483 34.5,28.5C 32.4807,27.8671 32.1474,26.8671 33.5,25.5 Z"/></g>
<g><path style="opacity:1" fill="#38342e" d="M 43.5,22.5 C 47.31,23.7542 47.31,24.7542 43.5,25.5C 43.5,24.5 43.5,23.5 43.5,22.5 Z"/></g>
<g><path style="opacity:1" fill="#c01d15" d="M 53.5,23.5 C 55.9732,23.9473 56.1399,24.9473 54,26.5C 53.5172,25.552 53.3505,24.552 53.5,23.5 Z"/></g>
<g><path style="opacity:1" fill="#d16358" d="M 31.5,19.5 C 34.9679,21.0438 35.1346,22.7104 32,24.5C 31.5065,22.8659 31.3398,21.1992 31.5,19.5 Z"/></g>
<g><path style="opacity:1" fill="#d14f43" d="M 55.5,17.5 C 56.6129,18.9464 56.7796,20.6131 56,22.5C 54.4807,20.8608 54.314,19.1942 55.5,17.5 Z"/></g>
<g><path style="opacity:1" fill="#6a665f" d="M 44.5,16.5 C 45.6491,16.7911 46.3158,17.6244 46.5,19C 46.4056,21.9541 45.9056,22.1208 45,19.5C 44.4444,21.5951 43.9444,21.7618 43.5,20C 43.9891,18.8615 44.3225,17.6948 44.5,16.5 Z"/></g>
<g><path style="opacity:1" fill="#9f1e17" d="M 39.5,27.5 C 40.6291,29.6282 40.7958,31.9615 40,34.5C 39.1667,33.6667 38.3333,32.8333 37.5,32C 38.5822,30.6703 39.2488,29.1703 39.5,27.5 Z"/></g>
<g><path style="opacity:1" fill="#bc2116" d="M 57.5,27.5 C 59.5582,28.9331 61.8915,29.5997 64.5,29.5C 64.4648,33.5472 62.4648,36.2139 58.5,37.5C 55.4799,34.2227 55.1466,30.8894 57.5,27.5 Z"/></g>
<g><path style="opacity:1" fill="#5c574c" d="M 29.5,29.5 C 29.5,30.1667 29.5,30.8333 29.5,31.5C 28.6136,32.7759 27.6136,32.7759 26.5,31.5C 27.0047,30.0815 28.0047,29.4148 29.5,29.5 Z"/></g>
<g><path style="opacity:1" fill="#2d2a24" d="M 48.5,27.5 C 49.4379,29.9227 48.9379,32.256 47,34.5C 46.1301,33.8921 45.6301,33.0588 45.5,32C 46.3146,30.3566 47.3146,28.8566 48.5,27.5 Z"/></g>
<g><path style="opacity:1" fill="#e3d5bb" d="M 27.5,21.5 C 28.718,23.8281 29.718,26.3281 30.5,29C 30.2716,29.3988 29.9382,29.5654 29.5,29.5C 28.0047,29.4148 27.0047,30.0815 26.5,31.5C 27.6136,32.7759 28.6136,32.7759 29.5,31.5C 30.1174,31.6107 30.6174,31.944 31,32.5C 31.4955,34.4727 31.6621,36.4727 31.5,38.5C 31.0269,39.9063 30.0269,40.573 28.5,40.5C 26.7867,35.4036 24.7867,30.4036 22.5,25.5C 23.5703,23.4597 25.2369,22.1264 27.5,21.5 Z"/></g>
<g><path style="opacity:1" fill="#746f64" d="M 24.5,24.5 C 27.8384,25.1935 28.3384,26.8601 26,29.5C 24.9914,27.9751 24.4914,26.3084 24.5,24.5 Z"/></g>
<g><path style="opacity:1" fill="#d7b45f" d="M 71.5,39.5 C 71.5,40.1667 71.5,40.8333 71.5,41.5C 69.5005,40.3741 67.5005,40.2075 65.5,41C 67.0884,38.5213 69.0884,38.0213 71.5,39.5 Z"/></g>
<g><path style="opacity:1" fill="#62130c" d="M 70.5,33.5 C 70.2322,35.099 70.5655,36.4324 71.5,37.5C 71.5,38.1667 71.5,38.8333 71.5,39.5C 69.0884,38.0213 67.0884,38.5213 65.5,41C 67.5005,40.2075 69.5005,40.3741 71.5,41.5C 76.6225,41.3746 81.9558,41.3746 87.5,41.5C 87.8466,50.9191 87.1799,60.2524 85.5,69.5C 85.5716,71.5596 85.9049,73.5596 86.5,75.5C 62.5093,76.4997 38.5093,76.8331 14.5,76.5C 13.3541,67.219 13.3541,57.8856 14.5,48.5C 13.5,48.5 12.5,48.5 11.5,48.5C 11.5,46.1667 11.5,43.8333 11.5,41.5C 17.358,41.8222 23.0247,41.4889 28.5,40.5C 30.0269,40.573 31.0269,39.9063 31.5,38.5C 32.5,38.1667 33.1667,37.5 33.5,36.5C 37.1352,35.8857 40.8019,35.5524 44.5,35.5C 44.5,37.1667 44.5,38.8333 44.5,40.5C 50.5092,40.6662 56.5092,40.4995 62.5,40C 64.5268,38.1207 66.8602,36.954 69.5,36.5C 69.2627,35.209 69.596,34.209 70.5,33.5 Z"/></g>
<g><path style="opacity:1" fill="#d5b160" d="M 37.5,39.5 C 37.6309,40.3764 37.2975,41.0431 36.5,41.5C 35.1667,41.1667 33.8333,40.8333 32.5,40.5C 33.782,38.2957 35.4486,37.9624 37.5,39.5 Z"/></g>
<g><path style="opacity:1" fill="#edd06d" d="M 37.5,39.5 C 37.8425,37.7748 38.8425,37.2748 40.5,38C 39.7562,39.0386 38.7562,39.5386 37.5,39.5 Z"/></g>
<g><path style="opacity:1" fill="#f7db73" d="M 19.5,51.5 C 18.609,50.8902 17.609,50.5569 16.5,50.5C 16.5,48.8333 16.5,47.1667 16.5,45.5C 15.1667,45.5 13.8333,45.5 12.5,45.5C 12.5,44.5 12.5,43.5 12.5,42.5C 16.1667,42.5 19.8333,42.5 23.5,42.5C 23.5,43.5 23.5,44.5 23.5,45.5C 22.1667,45.5 20.8333,45.5 19.5,45.5C 19.5,47.5 19.5,49.5 19.5,51.5 Z"/></g>
<g><path style="opacity:1" fill="#f2c757" d="M 40.5,42.5 C 41.9778,42.238 43.3112,42.5713 44.5,43.5C 47.8428,51.8112 49.1761,51.4779 48.5,42.5C 49.5,42.5 50.5,42.5 51.5,42.5C 51.5,47.1667 51.5,51.8333 51.5,56.5C 50.1266,56.6567 48.7932,56.49 47.5,56C 46.2062,53.913 45.0395,51.7463 44,49.5C 43.5034,51.8098 43.3367,54.1432 43.5,56.5C 42.5,56.5 41.5,56.5 40.5,56.5C 40.5,51.8333 40.5,47.1667 40.5,42.5 Z"/></g>
<g><path style="opacity:1" fill="#fad25e" d="M 31.5,42.5 C 33.8333,42.5 36.1667,42.5 38.5,42.5C 38.6495,43.552 38.4828,44.552 38,45.5C 36.9887,44.6634 35.8221,44.33 34.5,44.5C 34.5,45.8333 34.5,47.1667 34.5,48.5C 38.5,49.1667 38.5,49.8333 34.5,50.5C 34.5,51.8333 34.5,53.1667 34.5,54.5C 36.4832,54.1568 37.8166,54.8235 38.5,56.5C 36.1667,56.5 33.8333,56.5 31.5,56.5C 31.5,51.8333 31.5,47.1667 31.5,42.5 Z"/></g>
<g><path style="opacity:1" fill="#fcdc6a" d="M 68.5,50.5 C 67.391,50.5569 66.391,50.8902 65.5,51.5C 65.5,48.5 65.5,45.5 65.5,42.5C 67.8333,42.5 70.1667,42.5 72.5,42.5C 72.6495,43.552 72.4828,44.552 72,45.5C 70.9887,44.6634 69.8221,44.33 68.5,44.5C 68.5,45.8333 68.5,47.1667 68.5,48.5C 72.5,49.1667 72.5,49.8333 68.5,50.5 Z"/></g>
<g><path style="opacity:1" fill="#964915" d="M 71.5,37.5 C 72.2891,37.7828 72.9558,38.2828 73.5,39C 78.1667,39.3333 82.8333,39.6667 87.5,40C 88,40.5 88.5,41 89,41.5C 89.6667,47.5 89.6667,53.5 89,59.5C 86.5224,64.6527 86.0224,69.986 87.5,75.5C 87.2528,76.7133 86.5862,77.38 85.5,77.5C 61.6608,77.8309 37.9941,77.4976 14.5,76.5C 38.5093,76.8331 62.5093,76.4997 86.5,75.5C 85.9049,73.5596 85.5716,71.5596 85.5,69.5C 87.1799,60.2524 87.8466,50.9191 87.5,41.5C 81.9558,41.3746 76.6225,41.3746 71.5,41.5C 71.5,40.8333 71.5,40.1667 71.5,39.5C 71.5,38.8333 71.5,38.1667 71.5,37.5 Z"/></g>
<g><path style="opacity:1" fill="#f6c752" d="M 74.5,42.5 C 75.9778,42.238 77.3112,42.5713 78.5,43.5C 81.865,53.0278 83.1983,52.6944 82.5,42.5C 83.5,42.5 84.5,42.5 85.5,42.5C 85.5,47.8333 85.5,53.1667 85.5,58.5C 84.1779,58.67 83.0113,58.3366 82,57.5C 80.6667,54.8333 79.3333,52.1667 78,49.5C 77.5026,52.146 77.3359,54.8127 77.5,57.5C 76.5,57.5 75.5,57.5 74.5,57.5C 74.5,52.5 74.5,47.5 74.5,42.5 Z"/></g>
<g><path style="opacity:1" fill="#a9692d" d="M 31.5,42.5 C 31.5,47.1667 31.5,51.8333 31.5,56.5C 33.8333,56.5 36.1667,56.5 38.5,56.5C 36.0521,57.4731 33.3854,57.8064 30.5,57.5C 30.1795,52.3054 30.5128,47.3054 31.5,42.5 Z"/></g>
<g><path style="opacity:1" fill="#e9b84b" d="M 24.5,42.5 C 25.8333,42.5 27.1667,42.5 28.5,42.5C 28.5,47.5 28.5,52.5 28.5,57.5C 27.1667,57.5 25.8333,57.5 24.5,57.5C 24.5,52.5 24.5,47.5 24.5,42.5 Z"/></g>
<g><path style="opacity:1" fill="#fac44a" d="M 56.5,42.5 C 57.8734,42.3433 59.2068,42.51 60.5,43C 59.5399,46.73 59.2065,50.5633 59.5,54.5C 60.9778,54.238 62.3112,54.5713 63.5,55.5C 61.2573,56.4742 58.924,56.8076 56.5,56.5C 56.5,51.8333 56.5,47.1667 56.5,42.5 Z"/></g>
<g><path style="opacity:1" fill="#f3b337" d="M 16.5,50.5 C 17.609,50.5569 18.609,50.8902 19.5,51.5C 19.5,53.8333 19.5,56.1667 19.5,58.5C 18.1266,58.6567 16.7932,58.49 15.5,58C 16.435,55.6194 16.7683,53.1194 16.5,50.5 Z"/></g>
<g><path style="opacity:1" fill="#e9a631" d="M 68.5,50.5 C 68.5,51.8333 68.5,53.1667 68.5,54.5C 70.1667,54.5 71.8333,54.5 73.5,54.5C 73.5,55.5 73.5,56.5 73.5,57.5C 70.4816,57.6646 67.4816,57.498 64.5,57C 65.4061,55.3005 65.7394,53.4672 65.5,51.5C 66.391,50.8902 67.391,50.5569 68.5,50.5 Z"/></g>
<g><path style="opacity:1" fill="#be9552" d="M 34.5,58.5 C 37.1731,58.6845 37.8398,59.8511 36.5,62C 35.365,62.7494 34.365,62.5827 33.5,61.5C 34.1272,60.5832 34.4606,59.5832 34.5,58.5 Z"/></g>
<g><path style="opacity:1" fill="#eabd52" d="M 15.5,63.5 C 16.8333,63.5 18.1667,63.5 19.5,63.5C 20.5,71.5 21.5,71.5 22.5,63.5C 23.8333,63.5 25.1667,63.5 26.5,63.5C 26.5,67.1667 26.5,70.8333 26.5,74.5C 25.5,74.5 24.5,74.5 23.5,74.5C 23.5032,69.4083 22.6699,69.4083 21,74.5C 20,72.5 19,70.5 18,68.5C 17.8078,70.5767 17.3078,72.5767 16.5,74.5C 15.5108,70.8927 15.1774,67.226 15.5,63.5 Z"/></g>
<g><path style="opacity:1" fill="#e1af48" d="M 52.5,63.5 C 55.2919,63.4521 57.1253,64.7854 58,67.5C 58.49,66.2068 58.6567,64.8734 58.5,63.5C 59.5,63.5 60.5,63.5 61.5,63.5C 61.5,67.1667 61.5,70.8333 61.5,74.5C 58.7081,74.5479 56.8747,73.2146 56,70.5C 55.51,71.7932 55.3433,73.1266 55.5,74.5C 54.5,74.5 53.5,74.5 52.5,74.5C 52.5,70.8333 52.5,67.1667 52.5,63.5 Z"/></g>
<g><path style="opacity:1" fill="#efc04f" d="M 73.5,63.5 C 74.8333,63.5 76.1667,63.5 77.5,63.5C 77.8623,69.2526 78.8623,69.586 80.5,64.5C 81.6888,63.5713 83.0222,63.238 84.5,63.5C 84.5,67.1667 84.5,70.8333 84.5,74.5C 83.5,74.5 82.5,74.5 81.5,74.5C 81.6125,68.1693 80.6125,68.1693 78.5,74.5C 77.3764,72.6314 76.5431,70.6314 76,68.5C 75.8078,70.5767 75.3078,72.5767 74.5,74.5C 73.5108,70.8927 73.1774,67.226 73.5,63.5 Z"/></g>
<g><path style="opacity:1" fill="#e5b247" d="M 40.5,63.5 C 42.6237,64.0312 44.1237,65.3645 45,67.5C 45.49,66.2068 45.6567,64.8734 45.5,63.5C 46.5,63.5 47.5,63.5 48.5,63.5C 48.5,67.1667 48.5,70.8333 48.5,74.5C 45.405,74.3737 43.5717,72.707 43,69.5C 42.7978,71.2556 42.2978,72.9223 41.5,74.5C 40.5108,70.8927 40.1774,67.226 40.5,63.5 Z"/></g>
<g><path style="opacity:1" fill="#fcc84b" d="M 28.5,63.5 C 29.7868,64.8714 30.4535,66.7047 30.5,69C 30.1667,70.8333 29.8333,72.6667 29.5,74.5C 28.5108,70.8927 28.1774,67.226 28.5,63.5 Z"/></g>
<g><path style="opacity:1" fill="#e6af42" d="M 65.5,63.5 C 66.8333,63.5 68.1667,63.5 69.5,63.5C 70.0078,67.1974 70.6745,70.8641 71.5,74.5C 69.7231,74.2137 68.0564,73.5471 66.5,72.5C 65.3279,72.9186 64.3279,73.5853 63.5,74.5C 63.1667,74 62.8333,73.5 62.5,73C 63.6072,69.8462 64.6072,66.6795 65.5,63.5 Z"/></g>
<g><path style="opacity:1" fill="#ebb444" d="M 32.5,63.5 C 34.604,63.2011 36.604,63.5344 38.5,64.5C 37.675,65.3857 36.675,65.719 35.5,65.5C 35.3601,67.1238 36.0267,68.2904 37.5,69C 36.0267,69.7096 35.3601,70.8762 35.5,72.5C 36.675,72.281 37.675,72.6143 38.5,73.5C 36.604,74.4656 34.604,74.7989 32.5,74.5C 32.5,70.8333 32.5,67.1667 32.5,63.5 Z"/></g>
<g><path style="opacity:1" fill="#9f5713" d="M 26.5,39.5 C 26.8417,40.3382 27.5084,40.6716 28.5,40.5C 23.0247,41.4889 17.358,41.8222 11.5,41.5C 11.5,43.8333 11.5,46.1667 11.5,48.5C 12.5,48.5 13.5,48.5 14.5,48.5C 13.3541,57.8856 13.3541,67.219 14.5,76.5C 37.9941,77.4976 61.6608,77.8309 85.5,77.5C 61.6702,78.6632 37.6702,78.8298 13.5,78C 12.4105,68.5619 12.4105,59.0619 13.5,49.5C 11.8762,49.6399 10.7096,48.9733 10,47.5C 9.05611,44.6529 9.55611,42.1529 11.5,40C 16.4889,39.5007 21.4889,39.3341 26.5,39.5 Z"/></g>
</svg>
